HIERARCHY
ROOT Hips
{
 OFFSET 0.000000 0.000000 0.000000
 CHANNELS 6 Xposition Yposition Zposition Yrotation Xrotation Zrotation
 JOINT Chest
 {
  OFFSET 0.000000 9.585900 0.002600
  CHANNELS 3 Yrotation Xrotation Zrotation
  JOINT Chest2
  {
   OFFSET 0.000000 9.601200 -0.005300
   CHANNELS 3 Yrotation Xrotation Zrotation
   JOINT Chest3
   {
    OFFSET 0.000000 9.561800 0.000000
    CHANNELS 3 Yrotation Xrotation Zrotation
    JOINT Chest4
    {
     OFFSET 0.000000 9.552100 0.000000
     CHANNELS 3 Yrotation Xrotation Zrotation
     JOINT Neck
     {
      OFFSET 0.000000 14.453000 0.000000
      CHANNELS 3 Yrotation Xrotation Zrotation
      JOINT Head
      {
       OFFSET 0.000000 8.936500 -0.011300
       CHANNELS 3 Yrotation Xrotation Zrotation
       End Site
       {
        OFFSET 0.000000 17.073600 -0.006000
       }
      }
     }
     JOINT RightCollar
     {
      OFFSET -2.921100 9.558500 0.000000
      CHANNELS 3 Yrotation Xrotation Zrotation
      JOINT RightShoulder
      {
       OFFSET -13.519700 0.000000 0.000000
       CHANNELS 3 Yrotation Xrotation Zrotation
       JOINT RightElbow
       {
        OFFSET 0.000000 -29.696600 0.000000
        CHANNELS 3 Yrotation Xrotation Zrotation
        JOINT RightWrist
        {
         OFFSET 0.000000 -24.004700 0.000000
         CHANNELS 3 Yrotation Xrotation Zrotation
         End Site
         {
          OFFSET 0.000000 -17.728500 0.000000
         }
        }
       }
      }
     }
     JOINT LeftCollar
     {
      OFFSET 2.921100 9.558500 0.000000
      CHANNELS 3 Yrotation Xrotation Zrotation
      JOINT LeftShoulder
      {
       OFFSET 13.519700 0.000000 0.000000
       CHANNELS 3 Yrotation Xrotation Zrotation
       JOINT LeftElbow
       {
        OFFSET 0.000000 -29.696600 0.000000
        CHANNELS 3 Yrotation Xrotation Zrotation
        JOINT LeftWrist
        {
         OFFSET 0.000000 -24.004700 0.000000
         CHANNELS 3 Yrotation Xrotation Zrotation
         End Site
         {
          OFFSET 0.000000 -17.728500 0.000000
         }
        }
       }
      }
     }
    }
   }
  }
 }
 JOINT RightHip
 {
  OFFSET -7.771700 -0.012900 -0.001300
  CHANNELS 3 Yrotation Xrotation Zrotation
  JOINT RightKnee
  {
   OFFSET 0.000000 -40.869800 0.001200
   CHANNELS 3 Yrotation Xrotation Zrotation
   JOINT RightAnkle
   {
    OFFSET 0.000000 -39.717900 0.002100
    CHANNELS 3 Yrotation Xrotation Zrotation
    JOINT RightToe
    {
     OFFSET 0.000000 -4.965400 11.033500
     CHANNELS 3 Yrotation Xrotation Zrotation
     End Site
     {
      OFFSET 0.000000 -1.423100 5.872300
     }
    }
   }
  }
 }
 JOINT LeftHip
 {
  OFFSET 7.771700 -0.012900 -0.001300
  CHANNELS 3 Yrotation Xrotation Zrotation
  JOINT LeftKnee
  {
   OFFSET 0.000000 -40.869800 0.001200
   CHANNELS 3 Yrotation Xrotation Zrotation
   JOINT LeftAnkle
   {
    OFFSET 0.000000 -39.717900 0.002100
    CHANNELS 3 Yrotation Xrotation Zrotation
    JOINT LeftToe
    {
     OFFSET 0.000000 -4.965400 11.033500
     CHANNELS 3 Yrotation Xrotation Zrotation
     End Site
     {
      OFFSET 0.000000 -1.423100 5.872300
     }
    }
   }
  }
 }
}
MOTION
Frames: 12
Frame Time: 0.008333
-39.448828 50.408778 17.935642 167.172245 -12.136016 0.199360 2.740821 7.949091 0.904401 0.129095 0.402023 -0.001959 0.241145 0.694773 0.005276 2.408397 7.526339 0.106457 2.768834 20.327053 0.150744 5.003568 2.021508 -0.544733 2.644247 7.053305 -0.369023 -6.812147 -16.341245 -13.787478 -33.511452 -85.666941 53.036932 -2.084049 -3.472757 -36.265955 -4.643132 2.800874 1.795834 19.661920 -9.967145 0.419575 90.397318 -75.144865 -119.103320 -0.463073 3.285489 0.976447 -9.084847 -68.136444 -2.024455 -138.712041 81.691767 -136.440693 -2.222201 -17.988302 -2.417715 -0.451482 0.736247 -0.193926 -3.677344 -73.109207 18.114169 95.693517 78.459473 92.156791 -15.945756 -22.208959 2.276041 -0.050115 -1.006045 -0.066729
-39.434601 50.418316 17.942839 167.179261 -12.200614 0.203898 2.761750 7.990540 0.919636 0.163564 0.392669 0.014504 0.193773 0.720901 -0.016676 2.473888 7.570718 0.153654 2.761860 20.360137 0.142540 4.952055 2.026364 -0.563162 2.565624 7.071745 -0.459144 -7.092777 -16.272238 -13.873435 -50.925294 -85.750800 70.820547 -2.126657 -3.441037 -36.170421 -4.695744 2.773188 1.774391 19.985331 -10.150910 0.607140 92.196925 -74.279849 -121.437882 -0.383216 3.153803 0.738198 -9.051511 -68.071120 -2.062718 -138.662841 81.693704 -136.388633 -2.201655 -17.965214 -2.418120 -0.473956 0.714292 -0.204951 -3.395126 -73.039559 17.891947 95.444842 78.517752 91.969397 -16.026963 -22.235243 2.290454 0.009806 -0.968360 -0.044741
-39.416303 50.430164 17.952046 167.176198 -12.247746 0.213169 2.795787 8.020863 0.931881 0.163693 0.394740 0.017777 0.231032 0.720271 0.000695 2.457855 7.616432 0.155706 2.718018 20.349484 0.120905 4.974540 2.076919 -0.571620 2.505514 7.061226 -0.505450 -7.399218 -16.177618 -13.967313 -67.855282 -85.443689 88.171010 -2.153919 -3.466496 -36.050521 -4.704976 2.750098 1.770402 20.280570 -10.329465 0.796162 93.792548 -73.424843 -123.548469 -0.300733 3.011851 0.516712 -9.000612 -68.024331 -2.102838 -138.541219 81.693349 -136.268691 -2.162474 -17.926836 -2.408020 -0.514203 0.684614 -0.223934 -3.068127 -72.983525 17.649082 95.151652 78.578132 91.740647 -16.113615 -22.262189 2.301777 0.065729 -0.928131 -0.018163
-39.394177 50.445640 17.957731 167.173095 -12.310424 0.233190 2.856830 8.043818 0.960194 0.133624 0.416975 0.000467 0.232762 0.726392 0.001409 2.465905 7.647059 0.164136 2.692261 20.348408 0.106231 4.993435 2.117150 -0.577628 2.457780 7.056796 -0.545642 -7.734006 -16.090806 -14.028389 -81.847819 -84.820213 102.616517 -2.165701 -3.538498 -35.914235 -4.742618 2.730041 1.752911 20.601941 -10.507320 1.007315 95.114469 -72.555742 -125.388106 -0.241482 2.858018 0.336353 -8.925797 -67.960169 -2.173052 -138.410213 81.694836 -136.138626 -2.122955 -17.882447 -2.401730 -0.550810 0.648481 -0.241136 -2.673134 -72.905293 17.352798 94.819352 78.655740 91.476403 -16.206438 -22.286937 2.310557 0.198850 -0.912744 0.041673
-39.368794 50.461860 17.972998 167.177995 -12.310012 0.245828 2.878942 8.020179 0.969179 0.119630 0.430832 -0.008615 0.249196 0.721465 0.011202 2.471774 7.675720 0.170916 2.692684 20.365882 0.102373 4.994128 2.156527 -0.583838 2.410739 7.063487 -0.599839 -8.090774 -16.024401 -14.034831 -92.514369 -83.994255 113.753662 -2.163698 -3.630238 -35.768273 -4.770953 2.709882 1.740528 20.902524 -10.682573 1.222480 96.184284 -71.673048 -126.978699 -0.196629 2.700790 0.199744 -8.898721 -67.958492 -2.196666 -138.231456 81.701300 -135.962451 -2.068560 -17.830146 -2.392730 -0.601737 0.614879 -0.264609 -2.289495 -72.881166 17.081755 94.340964 78.731537 91.056826 -16.319646 -22.315011 2.325049 0.277832 -0.859028 0.085962
-39.339924 50.483273 17.976009 167.155532 -12.377169 0.282529 2.917899 8.070438 0.957121 0.113371 0.438563 -0.012397 0.263336 0.714875 0.019433 2.475063 7.701769 0.176072 2.743583 20.424638 0.118425 4.955562 2.172150 -0.592109 2.366563 7.068926 -0.650707 -8.459968 -15.970375 -14.007659 -100.514940 -83.052775 122.239020 -2.146611 -3.716921 -35.622272 -4.797334 2.692672 1.729632 21.193586 -10.856137 1.441904 97.167068 -70.811542 -128.438608 -0.117577 2.559076 0.066953 -8.760924 -67.892912 -2.309140 -138.159833 81.697315 -135.881019 -2.038716 -17.783341 -2.391192 -0.633207 0.567878 -0.280431 -1.851255 -72.776585 16.790342 93.959628 78.846618 90.736207 -16.471334 -22.367598 2.326827 0.387884 -0.800460 0.147166
-39.310724 50.505730 17.983583 167.137528 -12.407556 0.328078 2.936639 8.096841 0.922047 0.135202 0.423398 0.000949 0.259249 0.716392 0.018141 2.463907 7.724857 0.171285 2.756625 20.446789 0.122163 4.976582 2.235456 -0.592899 2.322920 7.089056 -0.719093 -8.828551 -15.939238 -13.921903 -106.651673 -82.057835 128.870123 -2.117734 -3.788458 -35.481310 -4.803900 2.679357 1.730284 21.479344 -11.024719 1.656466 98.058847 -69.974035 -129.762878 -0.009714 2.428728 -0.071007 -8.628265 -67.862713 -2.421577 -138.022176 81.701146 -135.742793 -1.993528 -17.737470 -2.383925 -0.676895 0.531157 -0.301333 -1.496009 -72.696350 16.572048 93.535856 78.933605 90.335008 -16.624723 -22.403569 2.329536 0.440315 -0.748268 0.193683
-39.281197 50.527410 18.001461 167.098013 -12.367027 0.375622 2.993313 8.030662 0.899580 0.135602 0.425966 0.001217 0.250565 0.725606 0.013759 2.460676 7.741649 0.171167 2.749942 20.454601 0.117484 5.019122 2.315725 -0.589670 2.296738 7.097148 -0.748326 -9.200595 -15.914694 -13.851927 -111.531599 -81.045814 134.242679 -2.083409 -3.845617 -35.345000 -4.808714 2.665998 1.735441 21.770539 -11.187434 1.858323 98.796218 -69.149033 -130.920996 0.099954 2.298851 -0.204597 -8.497490 -67.902899 -2.507970 -137.866326 81.704436 -135.589208 -1.862197 -17.719989 -2.361024 -0.801973 0.526598 -0.359069 -1.252082 -72.672618 16.484190 93.064075 78.964504 89.829056 -16.790555 -22.394647 2.338802 0.473489 -0.739240 0.230626
-39.247577 50.552183 18.009110 167.081297 -12.384038 0.416497 3.033863 7.995876 0.894666 0.124168 0.454658 -0.011936 0.236376 0.745056 0.003204 2.473691 7.742520 0.185254 2.761075 20.487408 0.117843 5.037956 2.374662 -0.590773 2.247031 7.169429 -0.830955 -9.557566 -15.955252 -13.710010 -115.519325 -80.028833 138.709308 -2.043575 -3.891652 -35.215118 -4.815577 2.658546 1.745087 22.074406 -11.345738 2.033047 99.401873 -68.341125 -131.952170 0.213552 2.170017 -0.336244 -8.359440 -67.890046 -2.618688 -137.747098 81.696315 -135.460164 -1.820197 -17.657332 -2.355831 -0.842904 0.468791 -0.376786 -1.144075 -72.578820 16.505778 92.673039 79.027999 89.382796 -16.909619 -22.438617 2.331267 0.551102 -0.679248 0.278484
-39.213911 50.577572 18.013637 167.074400 -12.411653 0.463398 3.045450 7.996317 0.865504 0.124626 0.459971 -0.011854 0.236528 0.747635 0.003476 2.470944 7.756673 0.186431 2.795667 20.536138 0.132734 5.039625 2.419971 -0.599388 2.228377 7.200329 -0.858601 -9.905150 -15.972009 -13.618496 -118.834913 -79.011356 142.479878 -1.998862 -3.931110 -35.085670 -4.824579 2.663878 1.740819 22.399404 -11.516925 2.199605 99.908368 -67.553716 -132.898730 0.335260 2.042429 -0.455352 -8.230841 -67.862288 -2.734974 -137.630573 81.696687 -135.355127 -1.762313 -17.604829 -2.333040 -0.906891 0.422314 -0.406386 -1.113318 -72.466209 16.588884 92.311483 79.089679 88.937776 -17.010387 -22.475086 2.316424 0.673203 -0.650917 0.324605
-39.176855 50.602388 18.017470 167.074875 -12.441428 0.490285 3.051015 7.995104 0.854722 0.134402 0.430746 0.001736 0.225227 0.781429 -0.010304 2.461291 7.765540 0.187737 2.805754 20.570281 0.132807 5.072085 2.491273 -0.603598 2.218769 7.246045 -0.884714 -10.235314 -16.003200 -13.524653 -121.655423 -77.996520 145.730660 -1.956793 -3.969652 -34.951447 -4.821309 2.682626 1.741349 22.731214 -11.681121 2.343213 100.351159 -66.783519 -133.787805 0.465011 1.916348 -0.561874 -8.144786 -67.831925 -2.809166 -137.529724 81.688522 -135.253269 -1.721528 -17.548324 -2.322412 -0.949670 0.366035 -0.425368 -1.212516 -72.352342 16.790160 92.005318 79.152140 88.532273 -17.067641 -22.507405 2.295203 0.765200 -0.611966 0.369110
-39.139945 50.625558 18.021437 167.078212 -12.465516 0.514177 3.047678 7.986389 0.842852 0.133311 0.431327 0.001667 0.233787 0.759090 0.001827 2.441752 7.797700 0.181876 2.811301 20.602370 0.123362 5.111713 2.569367 -0.603180 2.208428 7.326630 -0.922289 -10.548109 -16.072172 -13.415630 -124.091137 -76.981409 148.575923 -1.918841 -4.007102 -34.815683 -4.814612 2.712398 1.737097 23.064149 -11.837650 2.475735 100.741968 -66.025602 -134.617613 0.602097 1.793234 -0.668673 -8.068698 -67.807182 -2.879546 -137.459439 81.680801 -135.175723 -1.680225 -17.499882 -2.330858 -0.989361 0.316064 -0.431484 -1.347499 -72.251493 17.018438 91.749427 79.212288 88.174440 -17.113283 -22.521853 2.276097 0.835542 -0.595758 0.401666
